# xmcd
#
# Track frame offsets: 
#        150
#        70233
#        115533
#        169973
#        217761
#        229488
#        244961
#        254120
#        267332
#        278487
#        285094
#
# Disc length: 4028 seconds
#
# Revision: 0
# Processed by: cddbd v1.5.2PL0 Copyright (c) Steve Scherf et al.
# Submitted via: ExactAudioCopy v0.99pb5
#
DISCID=a00fba0b
DTITLE=Bela Bartok - Violin Concerto.2, Two Portraits, Dance Suite
DYEAR=1951
DGENRE=Classical
TTITLE0=1. Allegro non troppo - Tibor Varga, Berliner Philharmoniker
TTITLE1=2. Andante tranquillo - Tibor Varga, Berliner Philharmoniker
TTITLE2=3. Allegro molto - Tibor Varga, Berliner Philharmoniker
TTITLE3=4. "Ideal" - Rudolf Schulz, RIAS Symphony Orchestra Berlin
TTITLE4=5."Distorted" - Rudolf Schulz, RIAS Symphony Orchestra Berlin
TTITLE5=6. Moderato - RIAS Symphony Orchestra Berlin
TTITLE6=7. Allegro molto - RIAS Symphony Orchestra Berlin
TTITLE7=8. Allegro vivace - RIAS Symphony Orchestra Berlin
TTITLE8=9. Molto tranquillo - RIAS Symphony Orchestra Berlin
TTITLE9=10. Comodo - RIAS Symphony Orchestra Berlin
TTITLE10=11. Finale (Allegro) - RIAS Symphony Orchestra Berlin
EXTD=
EXTT0=
EXTT1=
EXTT2=
EXTT3=
EXTT4=
EXTT5=
EXTT6=
EXTT7=
EXTT8=
EXTT9=
EXTT10=
PLAYORDER=
